<svg xmlns="http://www.w3.org/2000/svg" width="30" height="59.833"><path fill="#fff" d="M15.178 17.143c1.39 0 2.519-1.128 2.519-2.518 0-1.389-1.129-2.518-2.519-2.518-1.389 0-2.518 1.129-2.518 2.518 0 1.39 1.129 2.518 2.518 2.518zm5.435-7.373c.759 0 1.371-.615 1.371-1.371 0-.758-.612-1.371-1.371-1.371-.757 0-1.37.613-1.37 1.371 0 .756.613 1.371 1.37 1.371zm-.4 4.855c0 2.78-2.255 5.035-5.035 5.035-2.78 0-5.035-2.255-5.035-5.035 0-.584.105-1.145.289-1.668h-2.434v6.824c0 1.178.964 2.144 2.144 2.144h9.716c1.179 0 2.143-.966 2.143-2.144v-8.969h-3.54c1.071.923 1.752 2.288 1.752 3.813zm4.128 6.958c0 1.572-1.287 2.86-2.86 2.86h-12.962c-1.574 0-2.86-1.288-2.86-2.86v-12.962c0-1.574 1.286-2.86 2.86-2.86h12.963c1.572 0 2.86 1.286 2.86 2.86l-.001 12.962z"/><path d="M15.178 46.771c1.39 0 2.519-1.129 2.519-2.518s-1.129-2.518-2.519-2.518c-1.389 0-2.518 1.129-2.518 2.518s1.129 2.518 2.518 2.518zm5.435-7.373c.759 0 1.371-.614 1.371-1.37 0-.758-.612-1.371-1.371-1.371-.757 0-1.37.613-1.37 1.371 0 .756.613 1.37 1.37 1.37zm-.4 4.855c0 2.78-2.255 5.035-5.035 5.035-2.78 0-5.035-2.255-5.035-5.035 0-.585.105-1.145.289-1.668h-2.434v6.824c0 1.178.964 2.144 2.144 2.144h9.716c1.179 0 2.143-.966 2.143-2.144v-8.97h-3.54c1.071.925 1.752 2.289 1.752 3.814zm4.128 6.958c0 1.573-1.287 2.86-2.86 2.86h-12.962c-1.574 0-2.86-1.287-2.86-2.86v-12.961c0-1.574 1.286-2.859 2.86-2.859h12.963c1.572 0 2.86 1.285 2.86 2.859l-.001 12.961z"/></svg>