<svg xmlns="http://www.w3.org/2000/svg" width="30" height="59.833"><path fill="#fff" d="M26 8.562c-.811.349-1.68.582-2.596.688.938-.539 1.646-1.395 1.986-2.412-.869.503-1.841.865-2.865 1.061-.823-.849-2-1.378-3.295-1.378-2.916 0-5.061 2.626-4.396 5.359-3.751-.188-7.077-1.923-9.303-4.564-1.187 1.958-.616 4.527 1.392 5.83-.737-.025-1.434-.221-2.042-.549-.048 2.024 1.449 3.913 3.622 4.331-.637.171-1.332.209-2.042.076.576 1.736 2.24 2.997 4.219 3.032-1.898 1.44-4.284 2.079-6.68 1.807 1.999 1.24 4.369 1.959 6.919 1.959 8.382 0 13.113-6.841 12.831-12.979.876-.615 1.646-1.386 2.25-2.261z"/><path d="M26 37.741c-.811.35-1.68.584-2.596.688.938-.539 1.646-1.396 1.986-2.412-.869.502-1.841.864-2.865 1.062-.823-.85-2-1.379-3.295-1.379-2.916 0-5.061 2.625-4.396 5.359-3.751-.188-7.077-1.924-9.303-4.564-1.187 1.959-.616 4.527 1.392 5.83-.737-.025-1.434-.222-2.042-.55-.048 2.024 1.449 3.914 3.622 4.331-.637.172-1.332.209-2.042.077.576 1.735 2.24 2.996 4.219 3.03-1.898 1.441-4.284 2.082-6.68 1.808 1.999 1.241 4.369 1.959 6.919 1.959 8.382 0 13.113-6.841 12.831-12.979.876-.614 1.646-1.385 2.25-2.26z"/></svg>