<svg xmlns="http://www.w3.org/2000/svg" width="30" height="59.833" viewBox="0 -0.167 30 59.833" enable-background="new 0 -0.167 30 59.833"><path fill="#666" d="M26 8.562c-.811.349-1.68.582-2.595.688.937-.539 1.646-1.395 1.985-2.412-.868.503-1.84.865-2.865 1.061-.823-.849-1.999-1.378-3.295-1.378-2.915 0-5.06 2.626-4.395 5.359-3.751-.188-7.077-1.923-9.303-4.564-1.187 1.958-.616 4.527 1.392 5.83-.737-.025-1.434-.221-2.042-.549-.048 2.024 1.449 3.913 3.622 4.331-.637.171-1.332.209-2.042.076.576 1.736 2.24 2.997 4.219 3.032-1.899 1.44-4.285 2.079-6.681 1.807 1.999 1.24 4.369 1.959 6.919 1.959 8.382 0 13.113-6.841 12.831-12.98.876-.614 1.646-1.385 2.25-2.26z"/><path d="M26 37.741c-.811.349-1.68.583-2.595.688.937-.539 1.646-1.396 1.985-2.412-.868.502-1.84.865-2.865 1.061-.823-.849-1.999-1.379-3.295-1.379-2.915 0-5.06 2.626-4.395 5.36-3.751-.188-7.077-1.923-9.303-4.565-1.187 1.959-.616 4.528 1.392 5.83-.737-.025-1.434-.221-2.042-.549-.048 2.024 1.449 3.914 3.622 4.331-.637.172-1.332.209-2.042.077.576 1.736 2.24 2.996 4.219 3.031-1.899 1.44-4.285 2.081-6.681 1.807 1.999 1.241 4.369 1.959 6.919 1.959 8.382 0 13.113-6.841 12.831-12.98.876-.613 1.646-1.385 2.25-2.259z"/></svg>