<svg xmlns="http://www.w3.org/2000/svg" width="30" height="59.833"><path fill="#666" d="M9.537 12.365l2.133.003v-.967l.002-.948v-.158c.002-.912.027-2.321.691-3.193.701-.923 1.664-1.55 3.315-1.547 2.688.005 3.822.39 3.822.39l-.539 3.158s-.889-.258-1.719-.26c-.828-.001-1.57.294-1.572 1.123l-.002.336v1.105l-.002.968 3.398.005-.24 3.084-3.164-.004-.019 10.718-3.999-.006.02-10.72-2.132-.002.007-3.085z"/><path fill="#111" d="M9.537 40.366l2.133.002v-.967l.002-.947v-.158c.002-.912.027-2.321.691-3.193.701-.923 1.664-1.551 3.315-1.547 2.688.005 3.822.39 3.822.39l-.539 3.158s-.889-.259-1.719-.261c-.828 0-1.57.295-1.572 1.123l-.002.336v1.105l-.002.969 3.398.004-.24 3.086-3.164-.004-.019 10.718-3.999-.007.02-10.719-2.132-.002.007-3.086z"/></svg>