<?xml version="1.0" encoding="utf-8"?>
<!-- Generator: Adobe Illustrator 16.0.0, SVG Export Plug-In . SVG Version: 6.00 Build 0)  -->
<!DOCTYPE svg PUBLIC "-//W3C//DTD SVG 1.1//EN" "http://www.w3.org/Graphics/SVG/1.1/DTD/svg11.dtd">
<svg version="1.1" id="Layer_1" xmlns="http://www.w3.org/2000/svg" xmlns:xlink="http://www.w3.org/1999/xlink" x="0px" y="0px"
	 width="30px" height="59.833px" viewBox="0 -0.167 30 59.833" enable-background="new 0 -0.167 30 59.833" xml:space="preserve">
<g>
	<path fill="#666666" d="M26,8.562c-0.811,0.349-1.68,0.582-2.595,0.688c0.937-0.539,1.646-1.395,1.985-2.412
		c-0.868,0.503-1.84,0.865-2.865,1.061c-0.823-0.849-1.999-1.378-3.295-1.378c-2.915,0-5.06,2.626-4.395,5.359
		c-3.751-0.188-7.077-1.923-9.303-4.564c-1.187,1.958-0.616,4.527,1.392,5.83c-0.737-0.025-1.434-0.221-2.042-0.549
		c-0.048,2.024,1.449,3.913,3.622,4.331c-0.637,0.171-1.332,0.209-2.042,0.076c0.576,1.736,2.24,2.997,4.219,3.032
		C8.782,21.476,6.396,22.115,4,21.843c1.999,1.24,4.369,1.959,6.919,1.959c8.382,0,13.113-6.841,12.831-12.98
		C24.626,10.208,25.396,9.437,26,8.562z"/>
	<path d="M26,37.741c-0.811,0.349-1.68,0.583-2.595,0.688c0.937-0.539,1.646-1.396,1.985-2.412c-0.868,0.502-1.84,0.865-2.865,1.061
		c-0.823-0.849-1.999-1.379-3.295-1.379c-2.915,0-5.06,2.626-4.395,5.36c-3.751-0.188-7.077-1.923-9.303-4.565
		c-1.187,1.959-0.616,4.528,1.392,5.83c-0.737-0.025-1.434-0.221-2.042-0.549c-0.048,2.024,1.449,3.914,3.622,4.331
		c-0.637,0.172-1.332,0.209-2.042,0.077c0.576,1.736,2.24,2.996,4.219,3.031C8.782,50.654,6.396,51.295,4,51.021
		c1.999,1.241,4.369,1.959,6.919,1.959c8.382,0,13.113-6.841,12.831-12.98C24.626,39.387,25.396,38.615,26,37.741z"/>
</g>
</svg>
